Coordinates
version=1
nRows=60
nColumns=12
inDegrees=yes

Units are S.I. units (second, meters, Newtons, ...)
Angles are in degrees

endheader
time	SC_y	SC_z	SC_x	AC_y	AC_z	AC_x	GH_y	GH_z	GH_yy	EL_x	PS_y
       0.0              -41.05          13.17          31.81          53.33         -7.934           7.96         -17.94          33.66         -24.53          84.41          67.77
   0.01482              -41.05          13.16          31.82          53.33         -7.935          7.958         -17.92          33.65         -24.53           84.4          67.76
   0.02963              -41.05          13.16          31.82          53.33         -7.936          7.956         -17.91          33.65         -24.54           84.4          67.76
   0.04445              -41.04          13.16          31.82          53.33         -7.937          7.953         -17.89          33.64         -24.54          84.39          67.75
   0.05926              -41.04          13.16          31.83          53.33         -7.938          7.951         -17.87          33.63         -24.55          84.39          67.75
   0.07408              -41.04          13.15          31.83          53.33         -7.939          7.948         -17.85          33.63         -24.55          84.39          67.74
   0.08889              -41.04          13.15          31.84          53.33          -7.94          7.945         -17.84          33.62         -24.56          84.38          67.74
    0.1037              -41.04          13.15          31.84          53.34         -7.941          7.942         -17.81          33.61         -24.56          84.38          67.73
    0.1185              -41.04          13.15          31.84          53.34         -7.942          7.939         -17.79           33.6         -24.57          84.37          67.73
    0.1333              -41.03          13.14          31.85          53.34         -7.943          7.935         -17.77          33.59         -24.57          84.36          67.72
    0.1482              -41.03          13.14          31.86          53.34         -7.944          7.932         -17.74          33.58         -24.58          84.36          67.71
     0.163              -41.03          13.13          31.86          53.35         -7.946          7.928         -17.71          33.57         -24.59          84.35           67.7
    0.1778              -41.03          13.13          31.87          53.35         -7.947          7.923         -17.68          33.56          -24.6          84.34          67.69
    0.1926              -41.02          13.13          31.88          53.35         -7.949          7.919         -17.65          33.55          -24.6          84.33          67.69
    0.2074              -41.02          13.12          31.88          53.35         -7.951          7.913         -17.62          33.54         -24.61          84.32          67.68
    0.2222              -41.02          13.12          31.89          53.36         -7.953          7.908         -17.58          33.52         -24.62          84.31          67.66
    0.2371              -41.01          13.11           31.9          53.36         -7.955          7.902         -17.54           33.5         -24.63           84.3          67.65
    0.2519              -41.01           13.1          31.91          53.37         -7.957          7.895         -17.49          33.49         -24.65          84.29          67.64
    0.2667              -41.01           13.1          31.92          53.37          -7.96          7.888         -17.44          33.47         -24.66          84.28          67.63
    0.2815               -41.0          13.09          31.93          53.37         -7.962           7.88         -17.39          33.45         -24.67          84.27          67.61
    0.2963               -41.0          13.08          31.95          53.38         -7.965          7.872         -17.33          33.42         -24.69          84.25          67.59
    0.3111              -40.99          13.07          31.96          53.39         -7.969          7.862         -17.26           33.4          -24.7          84.23          67.57
    0.3259              -40.98          13.06          31.98          53.39         -7.972          7.852         -17.19          33.37         -24.72          84.22          67.55
    0.3408              -40.98          13.05          31.99           53.4         -7.976           7.84         -17.11          33.34         -24.74           84.2          67.53
    0.3556              -40.97          13.04          32.01          53.41         -7.981          7.827         -17.02          33.31         -24.77          84.17          67.51
    0.3704              -40.96          13.02          32.04          53.42         -7.986          7.813         -16.93          33.27         -24.79          84.15          67.48
    0.3852              -40.95          13.01          32.06          53.43         -7.992          7.797         -16.82          33.23         -24.82          84.12          67.45
       0.4              -40.94          12.99          32.09          53.44         -7.998          7.779         -16.69          33.18         -24.85          84.09          67.41
    0.4148              -40.93          12.97          32.12          53.45         -8.005          7.758         -16.55          33.12         -24.89          84.05          67.37
    0.4297              -40.91          12.95          32.15          53.46         -8.013          7.735         -16.39          33.06         -24.93          84.01          67.32
    0.4445               -40.9          12.92          32.19          53.48         -8.022          7.708         -16.21          32.99         -24.98          83.96          67.27
    0.4593              -40.88          12.89          32.24           53.5         -8.033          7.678          -16.0          32.91         -25.03          83.91          67.21
    0.4741              -40.86          12.86          32.29          53.52         -8.045          7.643         -15.76          32.82         -25.09          83.85          67.14
    0.4889              -40.84          12.82          32.36          53.55          -8.06          7.602         -15.48          32.71         -25.17          83.78          67.06
    0.5037              -40.81          12.77          32.43          53.58         -8.076          7.554         -15.15          32.58         -25.25          83.69          66.97
    0.5186              -40.77          12.72          32.51          53.61         -8.096          7.498         -14.76          32.43         -25.35          83.59          66.86
    0.5334              -40.73          12.65          32.61          53.65          -8.12          7.431          -14.3          32.25         -25.47          83.47          66.73
    0.5482              -40.69          12.58          32.74           53.7         -8.148          7.351         -13.75          32.04         -25.61          83.33          66.57
     0.563              -40.63          12.48          32.88          53.76         -8.182          7.254         -13.08          31.78         -25.78          83.16          66.38
    0.5778              -40.56          12.37          33.06          53.84         -8.223          7.135         -12.27          31.47         -25.99          82.95          66.14
    0.5926              -40.47          12.23          33.28          53.93         -8.274          6.989         -11.26          31.08         -26.25          82.69          65.86
    0.6074              -40.36          12.05          33.56          54.04         -8.338          6.806         -10.01           30.6         -26.58          82.37           65.5
    0.6223              -40.22          11.83          33.91          54.18         -8.419          6.576         -8.427          29.98         -26.98          81.97          65.04
    0.6371              -40.05          11.55          34.35          54.37         -8.521          6.284         -6.418          29.21          -27.5          81.45          64.47
    0.6519              -39.83          11.19          34.92           54.6         -8.652          5.909         -3.847          28.22         -28.16          80.79          63.73
    0.6667              -39.54          10.72          35.65           54.9          -8.82          5.429         -0.548          26.94         -29.01          79.95          62.79
    0.6815              -39.17          10.13          36.57          55.28         -9.035          4.816          3.666          25.31          -30.1          78.86          61.58
    0.6963              -38.71          9.385          37.74          55.76         -9.305          4.045          8.966          23.26         -31.47           77.5          60.06
    0.7112              -38.15          8.478          39.17          56.34         -9.633          3.105          15.42          20.77         -33.13          75.85          58.21
     0.726               -37.5          7.426          40.82          57.02         -10.01          2.015          22.91          17.88         -35.06          73.93          56.07
    0.7408               -36.8          6.287           42.6          57.75         -10.43         0.8356          31.01          14.75         -37.15          71.85          53.75
    0.7556               -36.1          5.147          44.39          58.48         -10.84        -0.3441          39.12          11.62         -39.24          69.77          51.43
    0.7704              -35.45          4.095          46.04          59.16         -11.22         -1.434           46.6          8.723         -41.17          67.85          49.28
    0.7852              -34.89          3.188          47.46          59.74         -11.55         -2.373          53.06          6.228         -42.84          66.19          47.43
       0.8              -34.43          2.443          48.63          60.22         -11.82         -3.145          58.36          4.181          -44.2          64.83          45.92
    0.8149              -34.06          1.851          49.56           60.6         -12.03         -3.758          62.58          2.552         -45.29          63.75          44.71
    0.8297              -33.77          1.387          50.29           60.9          -12.2         -4.238          65.87          1.278         -46.14           62.9          43.76
    0.8445              -33.55          1.026          50.85          61.13         -12.33         -4.613          68.45         0.2843          -46.8          62.24          43.03
    0.8593              -33.38         0.7436           51.3          61.31         -12.44         -4.905          70.45        -0.4917         -47.32          61.73          42.45
    0.8741              -33.24         0.5216          51.64          61.46         -12.52         -5.135          72.03         -1.102         -47.73          61.32           42.0
